<svg width="1400" height="398" viewBox="0 0 1400 398" fill="none" xmlns="http://www.w3.org/2000/svg">
<rect width="1400" height="398" fill="#0A6ADA"/>
<path d="M750.184 103.587C765.409 91.9789 794.573 77.9677 799.055 77.6224C808.242 75.4707 824.31 76.8188 823.381 81.2217L804.396 88.6251L760.327 108.794L759.244 109.074L711.79 99.0562L709.448 98.0505L693.792 94.7473L689.596 92.8376L670.62 88.3204L670.828 87.3411L750.184 103.587Z" fill="white"/>
<path d="M671.093 117.548C673.228 114.891 674.762 114.15 677.996 113.896C684.621 119.753 687.95 123.723 692.999 132.393C694.118 133.498 694.855 133.686 696.423 133.116L714.867 123.213C719.677 123.402 717.548 129.519 716.46 130.192L690.623 143.646L677.306 151.054L675.659 149.174L681.818 141.787L669.098 139.101C669.099 130.634 669.539 125.905 671.093 117.548Z" fill="white"/>
<g filter="url(#filter0_d_65_18)">
<path d="M670.62 88.3206L690.086 92.941L693.793 94.7457L709.448 98.0507L711.79 99.0563L759.244 109.074L760.326 108.792L803.883 88.859L823.381 81.2218C824.829 86.5788 822.397 90.7235 815.956 97.029C804.802 105.249 797.96 108.16 785.869 113.673L771.855 121.957C771.852 140.023 768.741 165.758 768.741 165.758L760.342 171.651C760.342 171.651 748.824 150.863 743.753 136.465C725.066 147.409 714.49 152.001 695.304 155.365L692.048 175.63C689.847 177.843 688.526 178.397 685.943 177.918C682.649 169.717 681.543 165.353 680.47 157.855C675.064 158.59 672.371 158.375 667.723 157.719C665.688 156.892 665.298 155.938 665.51 153.675C666.2 152.06 666.926 151.452 668.679 150.766C658.866 147.409 653.405 145.228 643.68 140.89C646.74 137.605 649.171 136.349 654.628 135.025C660.196 135.869 663.311 136.33 669.305 138.123L669.098 139.101L681.818 141.787L675.659 149.174L677.306 151.055L716.563 129.703L715.845 123.419L659.363 95.6534L659.183 94.0825L670.827 87.3422L670.62 88.3206Z" fill="#189FFB"/>
</g>
<defs>
<filter id="filter0_d_65_18" x="643.68" y="81.2217" width="188.105" height="104.856" filterUnits="userSpaceOnUse" color-interpolation-filters="sRGB">
<feFlood flood-opacity="0" result="BackgroundImageFix"/>
<feColorMatrix in="SourceAlpha" type="matrix" values="0 0 0 0 0 0 0 0 0 0 0 0 0 0 0 0 0 0 127 0" result="hardAlpha"/>
<feOffset dx="4" dy="4"/>
<feGaussianBlur stdDeviation="2"/>
<feComposite in2="hardAlpha" operator="out"/>
<feColorMatrix type="matrix" values="0 0 0 0 0 0 0 0 0 0 0 0 0 0 0 0 0 0 0.25 0"/>
<feBlend mode="normal" in2="BackgroundImageFix" result="effect1_dropShadow_65_18"/>
<feBlend mode="normal" in="SourceGraphic" in2="effect1_dropShadow_65_18" result="shape"/>
</filter>
</defs>
</svg>
