<svg width="24" height="23" viewBox="0 0 24 23" fill="none" xmlns="http://www.w3.org/2000/svg">
<path fill-rule="evenodd" clip-rule="evenodd" d="M21.8129 7.21592C22.7387 6.9307 23.6991 7.55299 23.9422 8.59015C24.1852 9.62732 23.6413 10.6904 22.704 10.9886L16.5593 12.8296L11.5256 14.3334L5.38098 16.1744L3.5295 16.7319L2.63847 15.0076L1.08067 11.9773C0.795429 11.4225 1.08324 10.7448 1.68059 10.5648C2.01013 10.4655 2.36759 10.5429 2.62651 10.7697L4.48996 12.4017L10.2411 10.6774L6.15966 2.75804C5.79147 2.04363 6.16426 1.17055 6.9349 0.942398C7.3948 0.806243 7.89223 0.938333 8.224 1.28471L15.6683 9.05688L21.8129 7.21592ZM2.6623 19.6487C1.94654 19.6487 1.3663 20.2294 1.3663 20.9451C1.3663 21.6609 1.94654 22.2416 2.6623 22.2416H21.9221C22.6378 22.2416 23.2181 21.6609 23.2181 20.9451C23.2181 20.2294 22.6378 19.6487 21.9221 19.6487H2.6623Z" fill="white"/>
</svg>
