<svg width="64" height="16" viewBox="0 0 64 16" fill="none" xmlns="http://www.w3.org/2000/svg">
<path d="M8.11202 3.2864C9.52642 3.536 9.98402 4.1808 9.98402 5.096C9.98402 5.824 9.67202 6.968 8.98562 8.0704C8.65282 8.0288 8.29922 8.008 7.98722 8.008C7.63362 8.008 7.34242 8.0288 7.11362 8.0704C7.42562 6.9056 7.75842 5.3872 8.11202 3.2864ZM5.72 3.3072C5.304 6.0944 4.3056 9.776 3.2656 11.9808C1.6432 12.1264 0.9152 12.3344 0.9152 13.1248C0.9152 14.4144 1.7472 15.2256 2.2672 15.2256C2.7664 15.2256 3.2032 14.9344 4.0768 14.2272C6.136 15.5792 7.42562 15.9744 8.88162 15.9744C11.8976 15.9744 13.3536 14.3728 13.3536 12.168C13.3536 11.2528 12.8752 9.7136 10.816 8.632C12.3968 7.0928 13.312 5.3664 13.312 4.0352C13.312 1.664 11.6064 0 7.52962 0C3.0576 0 0 2.2048 0 4.5344C0 5.2832 0.3328 5.7616 0.8944 5.7616C1.0608 5.7616 1.248 5.72 1.3728 5.6576C2.1424 4.1184 3.9104 3.536 5.72 3.3072ZM9.38082 13.52C8.59042 13.52 6.94722 13 5.304 12.4384C5.9488 11.5232 6.38562 10.5456 6.67682 9.5264C9.40162 10.6912 10.3168 11.5648 10.3168 12.6464C10.3168 13.1872 9.90082 13.52 9.38082 13.52ZM29.5241 6.4688C29.1289 6.4688 28.7961 6.5936 28.5049 6.9472C28.4841 6.552 28.1929 6.0736 27.5273 6.0736C26.8201 6.0736 25.8841 6.5728 24.6985 7.5088C24.0537 7.6128 22.9929 7.7584 22.2233 7.8624C22.2233 6.7392 21.8281 6.2608 21.1209 6.2608C20.6841 6.2608 20.2681 6.4688 19.9353 6.9472C19.9145 6.2816 19.2905 6.032 18.7705 6.032C16.5657 6.032 14.3193 9.1104 14.3193 12.5632C14.3193 14.6016 15.4841 15.5792 16.9609 15.5792C19.5609 15.5792 21.3705 12.3344 21.9321 9.6928C21.9321 9.6928 22.6393 9.6304 23.4713 9.5472C23.0969 10.4624 22.8889 11.5024 22.8889 12.5632C22.8889 14.6016 24.0537 15.5792 25.5305 15.5792C26.9865 15.5792 28.0889 14.8304 29.0873 13.4784C29.3161 13.624 29.5449 13.6864 29.9193 13.6864C31.6873 13.6864 33.0809 11.7312 33.0809 10.8576C33.0809 10.4208 32.6441 10.1088 32.2697 10.1088C31.5833 11.2112 30.9801 11.6896 30.3769 11.6896C30.1689 11.6896 30.0233 11.6064 29.9609 11.544C30.4185 10.4 30.7929 8.8608 30.7929 7.8624C30.7929 7.0512 30.3769 6.4688 29.5241 6.4688ZM17.2729 11.9392C17.2729 10.3168 18.3129 8.112 19.5401 7.5712C19.2905 7.9664 19.2073 8.3616 19.2073 8.6944C19.2073 9.1936 19.4153 9.5888 19.7065 9.6928C19.4361 11.44 18.7705 13.208 18.0009 13.208C17.6681 13.208 17.2729 12.9168 17.2729 11.9392ZM25.8425 11.7936C25.8425 10.8784 26.0921 9.6928 26.5705 8.9024C27.1113 8.6944 27.6729 8.3408 27.9849 7.9248C27.6937 8.6528 27.4649 9.6928 27.4649 10.3376C27.4649 10.9824 27.5689 11.7728 27.7977 12.2512C27.5065 12.7088 27.0905 13.104 26.5913 13.104C26.2169 13.104 25.8425 12.8128 25.8425 11.7936ZM32.1287 11.0864C31.6087 11.9808 31.4423 12.7296 31.4423 13.3744C31.4631 14.456 32.3575 15.5584 33.5639 15.5584C34.0423 15.5584 34.4375 15.4128 34.6663 15.1632C34.6871 13.3952 34.7287 12.5008 34.8119 11.5648L35.7479 11.1904C35.6855 11.648 35.6439 12.1888 35.6439 12.7088C35.6439 15.0384 36.1639 15.9328 37.4951 15.9328C39.4087 15.9328 42.6119 12.0432 42.6119 10.8368C42.6119 10.4208 42.1959 10.192 41.8007 10.192C40.3447 12.2928 39.5127 13.1872 38.9719 13.1872C38.4727 13.1872 38.2647 12.4176 38.2647 10.1712C40.4071 9.1104 40.6567 8.9024 40.6567 7.9456C40.6567 7.1552 40.1783 6.3232 39.1591 6.3232C38.5975 6.3232 37.9943 6.7392 37.0583 8.0288C36.7879 8.4032 36.5383 8.8608 36.3303 9.2976L34.9367 9.88C35.0615 8.9856 35.5191 7.6336 35.9767 6.7184C37.4951 3.7648 37.9527 2.6 37.9527 1.6848C37.9527 0.624 37.3911 0.208 36.4967 0.208C33.8967 0.208 33.0023 3.3072 32.1287 11.0864ZM41.7776 9.4224C41.6112 10.296 40.9456 12.7088 40.9456 14.1024C40.9456 15.184 41.3824 15.704 42.5888 15.704C44.6896 15.704 48.0592 12.4384 48.0592 10.8576C48.0592 10.4416 47.664 10.1504 47.2688 10.1504C46.1872 11.8352 44.96 13.0208 44.3152 13.0208C44.128 13.0208 44.024 12.9376 44.024 12.7088C44.024 12.1888 45.0016 8.5696 45.5632 6.552C47.1232 3.6192 47.5392 2.6 47.5392 1.6848C47.5392 0.624 46.9776 0.208 46.0832 0.208C44.44 0.208 42.9632 1.8928 42.5888 4.7008C42.4016 6.1152 42.0272 8.0704 41.7776 9.4224ZM50.9039 8.632C50.9039 9.256 50.6543 9.9008 49.4895 10.1088C49.6351 8.6528 50.1967 7.9456 50.4879 7.9456C50.7375 7.9456 50.9039 8.1952 50.9039 8.632ZM49.4063 15.6208C52.1103 15.6208 55.5839 12.3136 55.5839 10.7744C55.5839 10.4416 55.2927 10.1088 54.7935 10.088C53.6079 11.8976 51.7775 13.104 50.3631 13.104C49.5519 13.104 49.3647 12.584 49.3647 11.648C52.2143 11.0032 53.2335 9.6512 53.2335 7.904C53.2335 6.448 52.4431 5.7616 51.0079 5.7616C48.9903 5.7616 46.4319 8.9648 46.4319 12.1056C46.4319 14.352 47.3679 15.6208 49.4063 15.6208ZM59.1901 7.488C58.8365 7.384 58.4413 7.2384 58.2125 7.1136C58.4829 6.656 58.9197 6.344 59.4189 6.0736C59.4605 5.9488 59.4813 5.8032 59.4813 5.6576C59.4813 5.096 59.0029 4.7632 58.2957 4.7632C57.1309 4.7632 54.9469 6.8224 54.9469 8.2784C54.9469 8.6736 55.0925 8.944 55.2589 9.1312C54.9053 9.984 54.5101 10.504 53.9693 11.2736C53.8653 11.4192 53.8237 11.6064 53.8237 11.7728C53.8237 12.2096 54.1357 12.584 54.6557 12.584C55.3421 11.8144 55.8205 11.0864 56.4653 9.8592C56.9229 10.0464 57.1517 10.1712 57.1517 10.4208C57.1517 10.9616 56.1325 12.7296 56.1325 14.1024C56.1325 15.288 56.8397 15.8496 58.1085 15.8496C60.0221 15.8496 63.5789 12.1472 63.5789 10.8368C63.5789 10.5248 63.2253 10.192 62.7053 10.192C61.6029 11.9184 60.1469 13.208 59.5645 13.208C59.2941 13.208 59.2109 13 59.2109 12.7088C59.2109 12.1888 59.6269 11.1696 60.1053 10.2128C60.4381 9.5472 60.6669 9.048 60.6669 8.632C60.6669 8.1328 60.4173 7.8416 59.1901 7.488Z" fill="white"/>
</svg>
